<mxfile host="65bd71144e" modified="2020-10-11T16:57:54.754Z" agent="5.0 (X11; Linux x86_64) AppleWebKit/537.36 (KHTML, like Gecko) Code/1.49.3 Chrome/83.0.4103.122 Electron/9.2.1 Safari/537.36" etag="iawFKPg8gMJLfjdkH_HF" version="13.6.5">
    <diagram id="RapSkUgb8w5dOuWq6VPw" name="ページ1">
        <mxGraphModel dx="925" dy="637" grid="1" gridSize="10" guides="1" tooltips="1" connect="1" arrows="1" fold="1" page="0" pageScale="1" pageWidth="1169" pageHeight="827" background="#F1FAEE" math="0" shadow="0">
            <root>
                <mxCell id="0"/>
                <mxCell id="1" parent="0"/>
                <mxCell id="12" value="" style="endArrow=none;html=1;exitX=1;exitY=0.5;exitDx=0;exitDy=0;entryX=0;entryY=0.5;entryDx=0;entryDy=0;fontSize=24;fontColor=#1D3557;strokeColor=#457B9D;labelBackgroundColor=#F1FAEE;" parent="1" source="11" edge="1">
                    <mxGeometry width="50" height="50" relative="1" as="geometry">
                        <mxPoint x="560" y="320" as="sourcePoint"/>
                        <mxPoint x="520" y="220" as="targetPoint"/>
                    </mxGeometry>
                </mxCell>
                <mxCell id="11" value="監督" style="html=1;whiteSpace=wrap;aspect=fixed;shape=isoRectangle;fontSize=24;fillColor=#A8DADC;fontColor=#1D3557;strokeColor=#457B9D;" parent="1" vertex="1">
                    <mxGeometry x="280" y="175" width="150" height="90" as="geometry"/>
                </mxCell>
                <mxCell id="13" value="" style="endArrow=none;html=1;exitX=1;exitY=0.5;exitDx=0;exitDy=0;entryX=0;entryY=0.5;entryDx=0;entryDy=0;fontSize=24;fontColor=#1D3557;strokeColor=#457B9D;labelBackgroundColor=#F1FAEE;" parent="1" source="52" target="11" edge="1">
                    <mxGeometry width="50" height="50" relative="1" as="geometry">
                        <mxPoint x="240" y="225" as="sourcePoint"/>
                        <mxPoint x="520" y="220" as="targetPoint"/>
                    </mxGeometry>
                </mxCell>
                <mxCell id="15" value="" style="endArrow=none;html=1;entryX=1;entryY=0.5;entryDx=0;entryDy=0;exitX=0;exitY=0.5;exitDx=0;exitDy=0;fontSize=24;fontColor=#1D3557;strokeColor=#457B9D;labelBackgroundColor=#F1FAEE;" parent="1" source="16" edge="1">
                    <mxGeometry width="50" height="50" relative="1" as="geometry">
                        <mxPoint x="560" y="320" as="sourcePoint"/>
                        <mxPoint x="640" y="220" as="targetPoint"/>
                    </mxGeometry>
                </mxCell>
                <mxCell id="17" value="" style="endArrow=none;html=1;entryX=1;entryY=0.5;entryDx=0;entryDy=0;exitX=0;exitY=0.5;exitDx=0;exitDy=0;fontSize=24;fontColor=#1D3557;strokeColor=#457B9D;labelBackgroundColor=#F1FAEE;" parent="1" source="53" target="16" edge="1">
                    <mxGeometry width="50" height="50" relative="1" as="geometry">
                        <mxPoint x="980" y="220" as="sourcePoint"/>
                        <mxPoint x="640" y="220" as="targetPoint"/>
                    </mxGeometry>
                </mxCell>
                <mxCell id="24" value="" style="group;fontSize=24;fontColor=#1D3557;" parent="1" vertex="1" connectable="0">
                    <mxGeometry x="740" y="175" width="150" height="90" as="geometry"/>
                </mxCell>
                <mxCell id="16" value="出演" style="html=1;whiteSpace=wrap;aspect=fixed;shape=isoRectangle;fontSize=24;fillColor=#A8DADC;fontColor=#1D3557;strokeColor=#457B9D;" parent="24" vertex="1">
                    <mxGeometry width="150" height="90" as="geometry"/>
                </mxCell>
                <mxCell id="38" value="制作" style="html=1;whiteSpace=wrap;aspect=fixed;shape=isoRectangle;fontSize=24;fillColor=#A8DADC;fontColor=#1D3557;strokeColor=#457B9D;" parent="1" vertex="1">
                    <mxGeometry x="505" y="340" width="150" height="90" as="geometry"/>
                </mxCell>
                <mxCell id="44" value="" style="endArrow=none;html=1;entryX=0.5;entryY=1;entryDx=0;entryDy=0;fontSize=24;fontColor=#1D3557;strokeColor=#457B9D;labelBackgroundColor=#F1FAEE;" parent="1" source="38" target="54" edge="1">
                    <mxGeometry width="50" height="50" relative="1" as="geometry">
                        <mxPoint x="560" y="320" as="sourcePoint"/>
                        <mxPoint x="580" y="260" as="targetPoint"/>
                    </mxGeometry>
                </mxCell>
                <mxCell id="45" value="" style="endArrow=none;html=1;exitX=0.5;exitY=0;exitDx=0;exitDy=0;entryX=0.502;entryY=1;entryDx=0;entryDy=0;entryPerimeter=0;fontSize=24;fontColor=#1D3557;strokeColor=#457B9D;labelBackgroundColor=#F1FAEE;" parent="1" source="55" target="38" edge="1">
                    <mxGeometry width="50" height="50" relative="1" as="geometry">
                        <mxPoint x="580" y="500" as="sourcePoint"/>
                        <mxPoint x="610" y="270" as="targetPoint"/>
                    </mxGeometry>
                </mxCell>
                <mxCell id="46" value="1" style="text;html=1;align=center;verticalAlign=middle;resizable=0;points=[];autosize=1;fontColor=#1D3557;fontSize=24;" parent="1" vertex="1">
                    <mxGeometry x="550" y="425" width="30" height="30" as="geometry"/>
                </mxCell>
                <mxCell id="47" value="1" style="text;html=1;align=center;verticalAlign=middle;resizable=0;points=[];autosize=1;fontColor=#1D3557;fontSize=24;" parent="1" vertex="1">
                    <mxGeometry x="250" y="190" width="30" height="30" as="geometry"/>
                </mxCell>
                <mxCell id="48" value="N" style="text;html=1;align=center;verticalAlign=middle;resizable=0;points=[];autosize=1;fontColor=#1D3557;fontSize=24;" parent="1" vertex="1">
                    <mxGeometry x="550" y="310" width="30" height="30" as="geometry"/>
                </mxCell>
                <mxCell id="49" value="N" style="text;html=1;align=center;verticalAlign=middle;resizable=0;points=[];autosize=1;fontColor=#1D3557;fontSize=24;" parent="1" vertex="1">
                    <mxGeometry x="430" y="190" width="30" height="30" as="geometry"/>
                </mxCell>
                <mxCell id="51" value="N" style="text;html=1;align=center;verticalAlign=middle;resizable=0;points=[];autosize=1;fontColor=#1D3557;fontSize=24;" parent="1" vertex="1">
                    <mxGeometry x="710" y="190" width="30" height="30" as="geometry"/>
                </mxCell>
                <mxCell id="50" value="M" style="text;html=1;align=center;verticalAlign=middle;resizable=0;points=[];autosize=1;fontColor=#1D3557;fontSize=24;" parent="1" vertex="1">
                    <mxGeometry x="890" y="190" width="40" height="30" as="geometry"/>
                </mxCell>
                <mxCell id="52" value="監督" style="rounded=0;whiteSpace=wrap;html=1;sketch=0;fillColor=#A8DADC;fontSize=24;fontColor=#1D3557;strokeColor=#457B9D;" parent="1" vertex="1">
                    <mxGeometry x="70" y="190" width="120" height="60" as="geometry"/>
                </mxCell>
                <mxCell id="53" value="俳優" style="rounded=0;whiteSpace=wrap;html=1;sketch=0;fillColor=#A8DADC;fontSize=24;fontColor=#1D3557;strokeColor=#457B9D;" parent="1" vertex="1">
                    <mxGeometry x="990" y="190" width="120" height="60" as="geometry"/>
                </mxCell>
                <mxCell id="54" value="映画" style="rounded=0;whiteSpace=wrap;html=1;sketch=0;fillColor=#A8DADC;fontSize=24;fontColor=#1D3557;strokeColor=#457B9D;" parent="1" vertex="1">
                    <mxGeometry x="520" y="190" width="120" height="60" as="geometry"/>
                </mxCell>
                <mxCell id="55" value="会社" style="rounded=0;whiteSpace=wrap;html=1;sketch=0;fillColor=#A8DADC;fontSize=24;fontColor=#1D3557;strokeColor=#457B9D;" parent="1" vertex="1">
                    <mxGeometry x="520" y="520" width="120" height="60" as="geometry"/>
                </mxCell>
                <mxCell id="56" value="&lt;u&gt;タイトル&lt;/u&gt;" style="ellipse;whiteSpace=wrap;html=1;rounded=0;sketch=0;fillColor=#A8DADC;fontSize=24;fontColor=#1D3557;strokeColor=#457B9D;" parent="1" vertex="1">
                    <mxGeometry x="520" y="20" width="120" height="80" as="geometry"/>
                </mxCell>
                <mxCell id="57" value="公開年" style="ellipse;whiteSpace=wrap;html=1;rounded=0;sketch=0;fillColor=#A8DADC;fontSize=24;fontColor=#1D3557;strokeColor=#457B9D;" parent="1" vertex="1">
                    <mxGeometry x="400" y="20" width="120" height="80" as="geometry"/>
                </mxCell>
                <mxCell id="58" value="ジャンル" style="ellipse;whiteSpace=wrap;html=1;rounded=0;sketch=0;fillColor=#A8DADC;fontSize=24;fontColor=#1D3557;strokeColor=#457B9D;" parent="1" vertex="1">
                    <mxGeometry x="640" y="20" width="120" height="80" as="geometry"/>
                </mxCell>
                <mxCell id="66" value="" style="endArrow=none;html=1;fillColor=#A8DADC;fontSize=24;fontColor=#1D3557;entryX=0.5;entryY=0;entryDx=0;entryDy=0;exitX=0.5;exitY=1;exitDx=0;exitDy=0;strokeColor=#457B9D;labelBackgroundColor=#F1FAEE;" parent="1" source="57" target="54" edge="1">
                    <mxGeometry width="50" height="50" relative="1" as="geometry">
                        <mxPoint x="490" y="150" as="sourcePoint"/>
                        <mxPoint x="540" y="100" as="targetPoint"/>
                    </mxGeometry>
                </mxCell>
                <mxCell id="67" value="" style="endArrow=none;html=1;fillColor=#A8DADC;fontSize=24;fontColor=#1D3557;entryX=0.5;entryY=0;entryDx=0;entryDy=0;exitX=0.5;exitY=1;exitDx=0;exitDy=0;strokeColor=#457B9D;labelBackgroundColor=#F1FAEE;" parent="1" source="56" target="54" edge="1">
                    <mxGeometry width="50" height="50" relative="1" as="geometry">
                        <mxPoint x="470" y="60" as="sourcePoint"/>
                        <mxPoint x="590" y="200" as="targetPoint"/>
                    </mxGeometry>
                </mxCell>
                <mxCell id="68" value="" style="endArrow=none;html=1;fillColor=#A8DADC;fontSize=24;fontColor=#1D3557;exitX=0.5;exitY=0;exitDx=0;exitDy=0;strokeColor=#457B9D;entryX=0.5;entryY=1;entryDx=0;entryDy=0;labelBackgroundColor=#F1FAEE;" parent="1" source="54" target="58" edge="1">
                    <mxGeometry width="50" height="50" relative="1" as="geometry">
                        <mxPoint x="480" y="70" as="sourcePoint"/>
                        <mxPoint x="640" y="130" as="targetPoint"/>
                    </mxGeometry>
                </mxCell>
                <mxCell id="69" value="&lt;u&gt;名前&lt;/u&gt;" style="ellipse;whiteSpace=wrap;html=1;rounded=0;sketch=0;strokeColor=#457B9D;fillColor=#A8DADC;fontColor=#1D3557;fontSize=24;" parent="1" vertex="1">
                    <mxGeometry y="20" width="120" height="80" as="geometry"/>
                </mxCell>
                <mxCell id="70" value="年齢" style="ellipse;whiteSpace=wrap;html=1;rounded=0;sketch=0;strokeColor=#457B9D;fillColor=#A8DADC;fontColor=#1D3557;fontSize=24;" parent="1" vertex="1">
                    <mxGeometry x="120" y="20" width="120" height="80" as="geometry"/>
                </mxCell>
                <mxCell id="71" value="" style="endArrow=none;html=1;strokeColor=#457B9D;fillColor=#A8DADC;fontColor=#1D3557;exitX=0.5;exitY=0;exitDx=0;exitDy=0;entryX=0.5;entryY=1;entryDx=0;entryDy=0;fontSize=24;labelBackgroundColor=#F1FAEE;" parent="1" source="52" target="70" edge="1">
                    <mxGeometry width="50" height="50" relative="1" as="geometry">
                        <mxPoint x="100" y="150" as="sourcePoint"/>
                        <mxPoint x="150" y="100" as="targetPoint"/>
                    </mxGeometry>
                </mxCell>
                <mxCell id="72" value="" style="endArrow=none;html=1;strokeColor=#457B9D;fillColor=#A8DADC;fontColor=#1D3557;entryX=0.5;entryY=1;entryDx=0;entryDy=0;exitX=0.5;exitY=0;exitDx=0;exitDy=0;fontSize=24;labelBackgroundColor=#F1FAEE;" parent="1" source="52" target="69" edge="1">
                    <mxGeometry width="50" height="50" relative="1" as="geometry">
                        <mxPoint x="100" y="150" as="sourcePoint"/>
                        <mxPoint x="150" y="100" as="targetPoint"/>
                    </mxGeometry>
                </mxCell>
                <mxCell id="79" value="性別" style="ellipse;whiteSpace=wrap;html=1;rounded=0;sketch=0;fillColor=#A8DADC;fontSize=24;fontColor=#1D3557;strokeColor=#457B9D;" parent="1" vertex="1">
                    <mxGeometry x="990" y="20" width="120" height="80" as="geometry"/>
                </mxCell>
                <mxCell id="80" value="&lt;u&gt;名前&lt;/u&gt;" style="ellipse;whiteSpace=wrap;html=1;rounded=0;sketch=0;fillColor=#A8DADC;fontSize=24;fontColor=#1D3557;strokeColor=#457B9D;" parent="1" vertex="1">
                    <mxGeometry x="870" y="20" width="120" height="80" as="geometry"/>
                </mxCell>
                <mxCell id="81" value="年齢" style="ellipse;whiteSpace=wrap;html=1;rounded=0;sketch=0;fillColor=#A8DADC;fontSize=24;fontColor=#1D3557;strokeColor=#457B9D;" parent="1" vertex="1">
                    <mxGeometry x="1110" y="20" width="120" height="80" as="geometry"/>
                </mxCell>
                <mxCell id="82" value="" style="endArrow=none;html=1;fillColor=#A8DADC;fontSize=24;fontColor=#1D3557;entryX=0.5;entryY=0;entryDx=0;entryDy=0;exitX=0.5;exitY=1;exitDx=0;exitDy=0;strokeColor=#457B9D;labelBackgroundColor=#F1FAEE;" parent="1" source="80" edge="1">
                    <mxGeometry width="50" height="50" relative="1" as="geometry">
                        <mxPoint x="960" y="150" as="sourcePoint"/>
                        <mxPoint x="1050" y="190" as="targetPoint"/>
                    </mxGeometry>
                </mxCell>
                <mxCell id="83" value="" style="endArrow=none;html=1;fillColor=#A8DADC;fontSize=24;fontColor=#1D3557;entryX=0.5;entryY=0;entryDx=0;entryDy=0;exitX=0.5;exitY=1;exitDx=0;exitDy=0;strokeColor=#457B9D;labelBackgroundColor=#F1FAEE;" parent="1" source="79" edge="1">
                    <mxGeometry width="50" height="50" relative="1" as="geometry">
                        <mxPoint x="940" y="60" as="sourcePoint"/>
                        <mxPoint x="1050" y="190" as="targetPoint"/>
                    </mxGeometry>
                </mxCell>
                <mxCell id="84" value="" style="endArrow=none;html=1;fillColor=#A8DADC;fontSize=24;fontColor=#1D3557;exitX=0.5;exitY=0;exitDx=0;exitDy=0;strokeColor=#457B9D;entryX=0.5;entryY=1;entryDx=0;entryDy=0;labelBackgroundColor=#F1FAEE;" parent="1" target="81" edge="1">
                    <mxGeometry width="50" height="50" relative="1" as="geometry">
                        <mxPoint x="1050" y="190" as="sourcePoint"/>
                        <mxPoint x="1110" y="130" as="targetPoint"/>
                    </mxGeometry>
                </mxCell>
                <mxCell id="91" value="&lt;u&gt;会社名&lt;/u&gt;" style="ellipse;whiteSpace=wrap;html=1;rounded=0;sketch=0;strokeColor=#457B9D;fillColor=#A8DADC;fontSize=24;fontColor=#1D3557;" parent="1" vertex="1">
                    <mxGeometry x="460" y="640" width="120" height="80" as="geometry"/>
                </mxCell>
                <mxCell id="92" value="住所" style="ellipse;whiteSpace=wrap;html=1;rounded=0;sketch=0;strokeColor=#457B9D;fillColor=#A8DADC;fontSize=24;fontColor=#1D3557;" parent="1" vertex="1">
                    <mxGeometry x="580" y="640" width="120" height="80" as="geometry"/>
                </mxCell>
                <mxCell id="96" value="" style="endArrow=none;html=1;strokeColor=#457B9D;fillColor=#A8DADC;fontSize=24;fontColor=#1D3557;entryX=0.5;entryY=0;entryDx=0;entryDy=0;exitX=0.5;exitY=1;exitDx=0;exitDy=0;labelBackgroundColor=#F1FAEE;" parent="1" source="55" target="92" edge="1">
                    <mxGeometry width="50" height="50" relative="1" as="geometry">
                        <mxPoint x="620" y="460" as="sourcePoint"/>
                        <mxPoint x="670" y="410" as="targetPoint"/>
                    </mxGeometry>
                </mxCell>
                <mxCell id="97" value="" style="endArrow=none;html=1;strokeColor=#457B9D;fillColor=#A8DADC;fontSize=24;fontColor=#1D3557;exitX=0.5;exitY=0;exitDx=0;exitDy=0;entryX=0.5;entryY=1;entryDx=0;entryDy=0;labelBackgroundColor=#F1FAEE;" parent="1" source="91" target="55" edge="1">
                    <mxGeometry width="50" height="50" relative="1" as="geometry">
                        <mxPoint x="620" y="460" as="sourcePoint"/>
                        <mxPoint x="590" y="610" as="targetPoint"/>
                    </mxGeometry>
                </mxCell>
                <mxCell id="98" value="制作費" style="ellipse;whiteSpace=wrap;html=1;rounded=0;sketch=0;strokeColor=#457B9D;fillColor=#A8DADC;fontSize=24;fontColor=#1D3557;" parent="1" vertex="1">
                    <mxGeometry x="350" y="345" width="120" height="80" as="geometry"/>
                </mxCell>
                <mxCell id="100" value="" style="endArrow=none;html=1;strokeColor=#457B9D;fillColor=#A8DADC;fontSize=24;fontColor=#1D3557;labelBackgroundColor=#F1FAEE;" parent="1" source="38" target="98" edge="1">
                    <mxGeometry width="50" height="50" relative="1" as="geometry">
                        <mxPoint x="740" y="440" as="sourcePoint"/>
                        <mxPoint x="480" y="450" as="targetPoint"/>
                    </mxGeometry>
                </mxCell>
                <mxCell id="101" value="役名" style="ellipse;whiteSpace=wrap;html=1;fillColor=#A8DADC;strokeColor=#457B9D;fontColor=#1D3557;fontSize=24;" parent="1" vertex="1">
                    <mxGeometry x="755" y="310" width="120" height="80" as="geometry"/>
                </mxCell>
                <mxCell id="102" value="" style="endArrow=none;html=1;labelBackgroundColor=#F1FAEE;strokeColor=#457B9D;fontColor=#1D3557;fontSize=24;" parent="1" source="101" target="16" edge="1">
                    <mxGeometry width="50" height="50" relative="1" as="geometry">
                        <mxPoint x="570" y="490" as="sourcePoint"/>
                        <mxPoint x="620" y="440" as="targetPoint"/>
                    </mxGeometry>
                </mxCell>
            </root>
        </mxGraphModel>
    </diagram>
</mxfile>
